<svg xmlns="http://www.w3.org/2000/svg" viewBox="0 0 64 64" width="64" height="64">
  <defs>
    <linearGradient id="bg" x1="0%" y1="0%" x2="100%" y2="100%">
      <stop offset="0%" style="stop-color:#1c3e56"/>
      <stop offset="100%" style="stop-color:#0e2030"/>
    </linearGradient>
  </defs>
  <rect width="64" height="64" rx="14" fill="url(#bg)"/>
  <g transform="translate(12, 8)" fill="none" stroke="#fff" stroke-width="2.5" stroke-linecap="round" stroke-linejoin="round">
    <!-- libro abierto -->
    <path d="M20 4 L20 44 C20 44 10 42 2 44 L2 6 C10 4 20 4 20 4Z" fill="rgba(255,255,255,0.15)"/>
    <path d="M20 4 C20 4 30 4 38 6 L38 44 C30 42 20 44 20 44Z" fill="rgba(255,255,255,0.25)"/>
    <line x1="20" y1="4" x2="20" y2="44"/>
    <line x1="8" y1="14" x2="16" y2="13"/>
    <line x1="8" y1="20" x2="16" y2="19"/>
    <line x1="8" y1="26" x2="16" y2="25"/>
    <line x1="24" y1="13" x2="32" y2="14"/>
    <line x1="24" y1="19" x2="32" y2="20"/>
    <line x1="24" y1="25" x2="32" y2="26"/>
  </g>
</svg>
